<svg id="_02-shop" data-name="02-shop" xmlns="http://www.w3.org/2000/svg" width="989.263" height="989.263" viewBox="0 0 989.263 989.263">
  <g id="Glyph" transform="translate(0 0)">
    <path id="Path_1" data-name="Path 1" d="M989.088,32H0V73.219a82.439,82.439,0,0,0,82.439,82.439H206.1a82.439,82.439,0,0,0,82.439-82.439,82.439,82.439,0,0,0,82.439,82.439H618.29a82.439,82.439,0,0,0,82.439-82.439,82.439,82.439,0,0,0,82.439,82.439H906.825a82.439,82.439,0,0,0,82.439-82.439V32Z" transform="translate(0 297.754)" fill="#fff"/>
    <path id="Path_2" data-name="Path 2" d="M368,288.535l-73.9-258.651A41.219,41.219,0,0,0,254.474,0H65.679l57.707,288.535Z" transform="translate(611.132 0)" fill="#fff"/>
    <path id="Path_3" data-name="Path 3" d="M303.306,0H114.511A41.22,41.22,0,0,0,74.878,29.886L.983,288.535H245.6Z" transform="translate(9.147 0)" fill="#fff"/>
    <path id="Path_4" data-name="Path 4" d="M286.81,0H90.586L32.879,288.535H344.518Z" transform="translate(305.933 0)" fill="#fff"/>
    <path id="Path_5" data-name="Path 5" d="M745.947,76.5a123.174,123.174,0,0,1-82.439-31.564A123.173,123.173,0,0,1,581.07,76.5H333.754a123.174,123.174,0,0,1-82.439-31.564A123.174,123.174,0,0,1,168.877,76.5H45.219A122.854,122.854,0,0,1,4,69.287V529.913a41.219,41.219,0,0,0,41.219,41.219h82.439V200.159a41.219,41.219,0,0,1,41.219-41.219h206.1a41.219,41.219,0,0,1,41.219,41.219V571.132H869.605a41.219,41.219,0,0,0,41.219-41.219V69.287A122.853,122.853,0,0,1,869.605,76.5Zm41.219,247.316a41.219,41.219,0,0,1-41.219,41.219h-206.1a41.219,41.219,0,0,1-41.219-41.219V200.159a41.219,41.219,0,0,1,41.219-41.219h206.1a41.219,41.219,0,0,1,41.219,41.219Z" transform="translate(37.219 418.131)" fill="#fff"/>
  </g>
</svg>
